<svg width="1500" height="750" viewBox="0 0 1500 750" fill="none" xmlns="http://www.w3.org/2000/svg">
<rect width="1500" height="750" fill="white"/>
<path d="M72.5892 276.817H94.2442L106.176 322.042H107.208L121.497 276.817H141.384L155.821 322.042H156.852L168.637 276.817H189.997L166.869 349H146.098L131.661 303.48H130.63L116.194 349H95.7173L72.5892 276.817ZM230.055 274.46C235.652 274.46 240.759 275.442 245.375 277.406C250.089 279.272 254.116 281.924 257.455 285.361C260.892 288.7 263.544 292.727 265.41 297.441C267.374 302.155 268.356 307.311 268.356 312.908C268.356 318.506 267.374 323.662 265.41 328.376C263.544 333.09 260.892 337.166 257.455 340.603C254.116 343.942 250.089 346.594 245.375 348.558C240.759 350.424 235.652 351.357 230.055 351.357C224.457 351.357 219.301 350.424 214.587 348.558C209.971 346.594 205.944 343.942 202.507 340.603C199.168 337.166 196.516 333.09 194.552 328.376C192.686 323.662 191.753 318.506 191.753 312.908C191.753 307.311 192.686 302.155 194.552 297.441C196.516 292.727 199.168 288.7 202.507 285.361C205.944 281.924 209.971 279.272 214.587 277.406C219.301 275.442 224.457 274.46 230.055 274.46ZM230.055 333.532C232.51 333.532 234.867 333.09 237.126 332.206C239.483 331.224 241.545 329.849 243.313 328.082C245.08 326.314 246.455 324.153 247.437 321.6C248.518 319.046 249.058 316.149 249.058 312.908C249.058 309.668 248.518 306.77 247.437 304.217C246.455 301.664 245.08 299.503 243.313 297.735C241.545 295.968 239.483 294.642 237.126 293.758C234.867 292.776 232.51 292.285 230.055 292.285C227.501 292.285 225.095 292.776 222.836 293.758C220.577 294.642 218.564 295.968 216.796 297.735C215.029 299.503 213.605 301.664 212.524 304.217C211.542 306.77 211.051 309.668 211.051 312.908C211.051 316.149 211.542 319.046 212.524 321.6C213.605 324.153 215.029 326.314 216.796 328.082C218.564 329.849 220.577 331.224 222.836 332.206C225.095 333.09 227.501 333.532 230.055 333.532ZM277.844 276.817H295.963V286.834H297.142C298.025 285.066 299.204 283.446 300.677 281.973C302.15 280.5 303.771 279.223 305.538 278.143C307.404 277.062 309.368 276.228 311.431 275.638C313.591 275.049 315.703 274.755 317.765 274.755C320.319 274.755 322.479 275 324.247 275.491C326.113 275.982 327.684 276.621 328.961 277.406L323.805 294.936C322.627 294.347 321.301 293.905 319.828 293.611C318.453 293.218 316.734 293.021 314.672 293.021C312.02 293.021 309.614 293.561 307.453 294.642C305.293 295.624 303.427 297.048 301.856 298.914C300.382 300.78 299.204 302.989 298.32 305.543C297.534 307.998 297.142 310.699 297.142 313.645V349H277.844V276.817ZM337.079 349V243.524H356.377V349H337.079ZM424.477 340.309H423.298C421.531 343.353 418.781 345.956 415.049 348.116C411.317 350.277 406.701 351.357 401.202 351.357C396.586 351.357 392.166 350.424 387.943 348.558C383.819 346.594 380.136 343.942 376.895 340.603C373.752 337.166 371.248 333.09 369.382 328.376C367.516 323.662 366.583 318.506 366.583 312.908C366.583 307.311 367.516 302.155 369.382 297.441C371.248 292.727 373.752 288.7 376.895 285.361C380.136 281.924 383.819 279.272 387.943 277.406C392.166 275.442 396.586 274.46 401.202 274.46C406.701 274.46 411.317 275.54 415.049 277.701C418.781 279.861 421.531 282.464 423.298 285.508H424.477L423.298 275.197V243.524H442.596V349H424.477V340.309ZM405.179 333.532C407.732 333.532 410.138 333.09 412.397 332.206C414.754 331.224 416.817 329.849 418.584 328.082C420.352 326.314 421.776 324.153 422.856 321.6C423.937 319.046 424.477 316.149 424.477 312.908C424.477 309.668 423.937 306.77 422.856 304.217C421.776 301.664 420.352 299.503 418.584 297.735C416.817 295.968 414.754 294.642 412.397 293.758C410.138 292.776 407.732 292.285 405.179 292.285C402.626 292.285 400.17 292.776 397.813 293.758C395.555 294.74 393.541 296.115 391.774 297.883C390.006 299.65 388.582 301.811 387.501 304.364C386.421 306.918 385.881 309.766 385.881 312.908C385.881 316.051 386.421 318.899 387.501 321.453C388.582 324.006 390.006 326.167 391.774 327.934C393.541 329.702 395.555 331.077 397.813 332.059C400.17 333.041 402.626 333.532 405.179 333.532Z" fill="#0057FF"/>
<path d="M80.2495 110.524H99.5474V140.134L98.3689 153.245H99.5474C101.61 149.808 104.556 147.009 108.386 144.848C112.314 142.589 116.685 141.46 121.497 141.46C130.827 141.46 137.701 144.21 142.121 149.709C146.638 155.209 148.897 162.722 148.897 172.248V216H129.599V174.605C129.599 169.597 128.421 165.816 126.064 163.262C123.707 160.611 120.417 159.285 116.194 159.285C113.542 159.285 111.185 159.874 109.123 161.052C107.06 162.133 105.293 163.655 103.819 165.619C102.445 167.583 101.364 169.891 100.579 172.543C99.8911 175.096 99.5474 177.846 99.5474 180.792L99.5474 216H80.2495L80.2495 110.524ZM231.719 198.617C228.38 204.51 223.862 209.273 218.166 212.906C212.568 216.54 205.694 218.357 197.542 218.357C192.043 218.357 186.936 217.424 182.222 215.558C177.606 213.594 173.579 210.893 170.142 207.456C166.705 204.019 164.004 199.992 162.04 195.376C160.174 190.662 159.241 185.506 159.241 179.908C159.241 174.703 160.174 169.793 162.04 165.177C163.906 160.463 166.509 156.388 169.848 152.95C173.187 149.415 177.115 146.616 181.633 144.554C186.248 142.491 191.306 141.46 196.806 141.46C202.6 141.46 207.756 142.442 212.274 144.406C216.791 146.272 220.572 148.924 223.617 152.361C226.661 155.7 228.969 159.678 230.54 164.293C232.112 168.909 232.897 173.918 232.897 179.319C232.897 180.007 232.897 180.596 232.897 181.087C232.799 181.676 232.75 182.216 232.75 182.707C232.652 183.198 232.603 183.739 232.603 184.328H178.244C178.637 187.274 179.423 189.827 180.601 191.988C181.878 194.05 183.4 195.818 185.168 197.291C187.034 198.666 189.047 199.697 191.208 200.385C193.368 200.974 195.578 201.269 197.837 201.269C202.256 201.269 205.89 200.287 208.738 198.322C211.684 196.26 213.992 193.707 215.662 190.662L231.719 198.617ZM214.189 170.628C214.09 169.351 213.648 167.927 212.863 166.356C212.175 164.784 211.095 163.311 209.622 161.936C208.247 160.561 206.479 159.432 204.319 158.548C202.256 157.664 199.752 157.222 196.806 157.222C192.681 157.222 189.047 158.401 185.905 160.758C182.762 163.115 180.552 166.405 179.276 170.628H214.189ZM243.749 216V110.524H263.047V216H243.749ZM278.097 216V110.524L297.395 110.524V216H278.097ZM345.902 141.46C351.5 141.46 356.607 142.442 361.222 144.406C365.936 146.272 369.963 148.924 373.302 152.361C376.739 155.7 379.391 159.727 381.257 164.441C383.221 169.155 384.203 174.311 384.203 179.908C384.203 185.506 383.221 190.662 381.257 195.376C379.391 200.09 376.739 204.166 373.302 207.603C369.963 210.942 365.936 213.594 361.222 215.558C356.607 217.424 351.5 218.357 345.902 218.357C340.304 218.357 335.148 217.424 330.434 215.558C325.818 213.594 321.792 210.942 318.354 207.603C315.015 204.166 312.364 200.09 310.4 195.376C308.534 190.662 307.601 185.506 307.601 179.908C307.601 174.311 308.534 169.155 310.4 164.441C312.364 159.727 315.015 155.7 318.354 152.361C321.792 148.924 325.818 146.272 330.434 144.406C335.148 142.442 340.304 141.46 345.902 141.46ZM345.902 200.532C348.357 200.532 350.714 200.09 352.973 199.206C355.33 198.224 357.392 196.849 359.16 195.082C360.928 193.314 362.303 191.153 363.285 188.6C364.365 186.046 364.905 183.149 364.905 179.908C364.905 176.668 364.365 173.77 363.285 171.217C362.303 168.664 360.928 166.503 359.16 164.735C357.392 162.968 355.33 161.642 352.973 160.758C350.714 159.776 348.357 159.285 345.902 159.285C343.348 159.285 340.942 159.776 338.684 160.758C336.425 161.642 334.412 162.968 332.644 164.735C330.876 166.503 329.452 168.664 328.372 171.217C327.39 173.77 326.899 176.668 326.899 179.908C326.899 183.149 327.39 186.046 328.372 188.6C329.452 191.153 330.876 193.314 332.644 195.082C334.412 196.849 336.425 198.224 338.684 199.206C340.942 200.09 343.348 200.532 345.902 200.532Z" fill="#0057FF"/>
<line x1="478" y1="339" x2="548" y2="339" stroke="#0057FF" stroke-width="20"/>
<path d="M72.385 641.95H77.225L83.88 664.115H83.935L91.03 641.95H95.815L102.91 664.06H102.965L109.62 641.95H114.35L105.275 670H100.545L93.285 647.615L86.08 670H81.405L72.385 641.95ZM115.139 641.95H119.979L126.634 664.115H126.689L133.784 641.95H138.569L145.664 664.06H145.719L152.374 641.95H157.104L148.029 670H143.299L136.039 647.615L128.834 670H124.159L115.139 641.95ZM157.893 641.95H162.733L169.388 664.115H169.443L176.538 641.95H181.323L188.418 664.06H188.473L195.128 641.95H199.858L190.783 670H186.053L178.793 647.615L171.588 670H166.913L157.893 641.95ZM205.142 670.33C204.152 670.33 203.308 670 202.612 669.34C201.952 668.643 201.622 667.8 201.622 666.81C201.622 665.857 201.952 665.05 202.612 664.39C203.308 663.693 204.152 663.345 205.142 663.345C206.132 663.345 206.957 663.693 207.617 664.39C208.313 665.05 208.662 665.857 208.662 666.81C208.662 667.8 208.313 668.643 207.617 669.34C206.957 670 206.132 670.33 205.142 670.33ZM224.132 670.88C222.079 670.88 220.245 670.477 218.632 669.67C217.019 668.863 215.772 667.763 214.892 666.37C214.012 664.94 213.572 663.327 213.572 661.53C213.572 658.56 214.69 656.25 216.927 654.6C219.164 652.913 221.987 652.07 225.397 652.07C227.084 652.07 228.642 652.253 230.072 652.62C231.539 652.987 232.657 653.408 233.427 653.885V652.18C233.427 650.09 232.694 648.422 231.227 647.175C229.76 645.892 227.909 645.25 225.672 645.25C224.132 645.25 222.684 645.598 221.327 646.295C220.007 646.955 218.962 647.89 218.192 649.1L214.672 646.46C215.772 644.773 217.294 643.453 219.237 642.5C221.18 641.547 223.325 641.07 225.672 641.07C229.485 641.07 232.474 642.078 234.637 644.095C236.8 646.075 237.882 648.788 237.882 652.235V670H233.427V665.985H233.207C232.4 667.342 231.19 668.497 229.577 669.45C227.964 670.403 226.149 670.88 224.132 670.88ZM224.572 666.755C226.149 666.755 227.615 666.352 228.972 665.545C230.329 664.738 231.41 663.657 232.217 662.3C233.024 660.943 233.427 659.458 233.427 657.845C232.547 657.258 231.465 656.782 230.182 656.415C228.899 656.048 227.542 655.865 226.112 655.865C223.545 655.865 221.602 656.397 220.282 657.46C218.999 658.523 218.357 659.898 218.357 661.585C218.357 663.125 218.944 664.372 220.117 665.325C221.29 666.278 222.775 666.755 224.572 666.755ZM256.052 670.88C253.522 670.88 251.231 670.238 249.177 668.955C247.161 667.672 245.566 665.912 244.392 663.675C243.219 661.402 242.632 658.835 242.632 655.975C242.632 653.152 243.219 650.603 244.392 648.33C245.566 646.057 247.161 644.278 249.177 642.995C251.231 641.712 253.522 641.07 256.052 641.07C258.179 641.07 260.086 641.565 261.772 642.555C263.459 643.508 264.742 644.7 265.622 646.13H265.842L265.622 642.225V630.62H270.297V670H265.842V665.875H265.622C264.742 667.268 263.459 668.46 261.772 669.45C260.086 670.403 258.179 670.88 256.052 670.88ZM256.547 666.645C258.197 666.645 259.719 666.205 261.112 665.325C262.542 664.445 263.679 663.198 264.522 661.585C265.402 659.972 265.842 658.102 265.842 655.975C265.842 653.848 265.402 651.978 264.522 650.365C263.679 648.752 262.542 647.505 261.112 646.625C259.719 645.745 258.197 645.305 256.547 645.305C254.934 645.305 253.412 645.745 251.982 646.625C250.552 647.505 249.397 648.77 248.517 650.42C247.674 652.033 247.252 653.885 247.252 655.975C247.252 658.065 247.674 659.935 248.517 661.585C249.397 663.198 250.552 664.445 251.982 665.325C253.412 666.205 254.934 666.645 256.547 666.645ZM279.953 636.78C279.037 636.78 278.248 636.45 277.588 635.79C276.928 635.13 276.598 634.342 276.598 633.425C276.598 632.472 276.928 631.683 277.588 631.06C278.248 630.4 279.037 630.07 279.953 630.07C280.907 630.07 281.695 630.4 282.318 631.06C282.978 631.683 283.308 632.472 283.308 633.425C283.308 634.342 282.978 635.13 282.318 635.79C281.695 636.45 280.907 636.78 279.953 636.78ZM277.643 641.95H282.318V670H277.643V641.95ZM300.122 670.44C298.985 670.44 297.922 670.257 296.932 669.89C295.979 669.523 295.172 669.028 294.512 668.405C293.045 667.012 292.312 665.087 292.312 662.63V646.185H287.417V641.95H292.312V634.03H296.987V641.95H303.862V646.185H296.987V661.475C296.987 663.015 297.28 664.152 297.867 664.885C298.564 665.692 299.572 666.095 300.892 666.095C302.029 666.095 303.055 665.783 303.972 665.16V669.725C303.422 669.982 302.854 670.165 302.267 670.275C301.717 670.385 301.002 670.44 300.122 670.44ZM318.332 668.24L306.727 641.95H311.787L320.587 662.795H320.697L329.167 641.95H334.227L316.902 681.88H312.062L318.332 668.24ZM347.364 670.88C344.358 670.88 341.846 670.183 339.829 668.79C337.813 667.36 336.383 665.545 335.539 663.345L339.719 661.475C340.416 663.162 341.443 664.463 342.799 665.38C344.193 666.297 345.714 666.755 347.364 666.755C349.124 666.755 350.628 666.407 351.874 665.71C353.121 664.977 353.744 663.95 353.744 662.63C353.744 661.457 353.249 660.522 352.259 659.825C351.269 659.092 349.711 658.468 347.584 657.955L344.174 657.075C341.938 656.525 340.104 655.59 338.674 654.27C337.244 652.95 336.529 651.245 336.529 649.155C336.529 647.542 337.006 646.13 337.959 644.92C338.949 643.673 340.251 642.72 341.864 642.06C343.478 641.4 345.219 641.07 347.089 641.07C349.546 641.07 351.728 641.602 353.634 642.665C355.578 643.728 356.953 645.213 357.759 647.12L353.689 648.99C352.443 646.497 350.224 645.25 347.034 645.25C345.494 645.25 344.138 645.617 342.964 646.35C341.828 647.047 341.259 647.945 341.259 649.045C341.259 650.072 341.663 650.915 342.469 651.575C343.276 652.198 344.486 652.712 346.099 653.115L350.169 654.16C352.919 654.857 354.991 655.902 356.384 657.295C357.778 658.652 358.474 660.32 358.474 662.3C358.474 664.023 357.979 665.545 356.989 666.865C355.999 668.148 354.661 669.138 352.974 669.835C351.288 670.532 349.418 670.88 347.364 670.88ZM373.745 670.88C370.372 670.88 367.787 669.89 365.99 667.91C364.23 665.93 363.35 663.162 363.35 659.605V641.95H368.025V658.89C368.025 661.567 368.63 663.528 369.84 664.775C371.05 666.022 372.682 666.645 374.735 666.645C376.312 666.645 377.705 666.223 378.915 665.38C380.162 664.537 381.115 663.437 381.775 662.08C382.472 660.723 382.82 659.293 382.82 657.79V641.95H387.495V670H383.04V665.93H382.82C382.05 667.323 380.822 668.497 379.135 669.45C377.449 670.403 375.652 670.88 373.745 670.88ZM405.449 670.44C404.312 670.44 403.249 670.257 402.259 669.89C401.306 669.523 400.499 669.028 399.839 668.405C398.372 667.012 397.639 665.087 397.639 662.63V646.185H392.744V641.95H397.639V634.03H402.314V641.95H409.189V646.185H402.314V661.475C402.314 663.015 402.607 664.152 403.194 664.885C403.891 665.692 404.899 666.095 406.219 666.095C407.356 666.095 408.382 665.783 409.299 665.16V669.725C408.749 669.982 408.181 670.165 407.594 670.275C407.044 670.385 406.329 670.44 405.449 670.44ZM423.239 670.88C421.185 670.88 419.352 670.477 417.739 669.67C416.125 668.863 414.879 667.763 413.999 666.37C413.119 664.94 412.679 663.327 412.679 661.53C412.679 658.56 413.797 656.25 416.034 654.6C418.27 652.913 421.094 652.07 424.504 652.07C426.19 652.07 427.749 652.253 429.179 652.62C430.645 652.987 431.764 653.408 432.534 653.885V652.18C432.534 650.09 431.8 648.422 430.334 647.175C428.867 645.892 427.015 645.25 424.779 645.25C423.239 645.25 421.79 645.598 420.434 646.295C419.114 646.955 418.069 647.89 417.299 649.1L413.779 646.46C414.879 644.773 416.4 643.453 418.344 642.5C420.287 641.547 422.432 641.07 424.779 641.07C428.592 641.07 431.58 642.078 433.744 644.095C435.907 646.075 436.989 648.788 436.989 652.235V670H432.534V665.985H432.314C431.507 667.342 430.297 668.497 428.684 669.45C427.07 670.403 425.255 670.88 423.239 670.88ZM423.679 666.755C425.255 666.755 426.722 666.352 428.079 665.545C429.435 664.738 430.517 663.657 431.324 662.3C432.13 660.943 432.534 659.458 432.534 657.845C431.654 657.258 430.572 656.782 429.289 656.415C428.005 656.048 426.649 655.865 425.219 655.865C422.652 655.865 420.709 656.397 419.389 657.46C418.105 658.523 417.464 659.898 417.464 661.585C417.464 663.125 418.05 664.372 419.224 665.325C420.397 666.278 421.882 666.755 423.679 666.755ZM443.492 641.95H447.947V646.46H448.167C448.717 644.92 449.781 643.655 451.357 642.665C452.934 641.638 454.584 641.125 456.307 641.125C457.591 641.125 458.691 641.308 459.607 641.675V646.735C458.434 646.148 457.114 645.855 455.647 645.855C454.291 645.855 453.044 646.24 451.907 647.01C450.771 647.78 449.854 648.825 449.157 650.145C448.497 651.428 448.167 652.822 448.167 654.325V670H443.492V641.95ZM462.256 670.33C461.266 670.33 460.423 670 459.726 669.34C459.066 668.643 458.736 667.8 458.736 666.81C458.736 665.857 459.066 665.05 459.726 664.39C460.423 663.693 461.266 663.345 462.256 663.345C463.246 663.345 464.071 663.693 464.731 664.39C465.428 665.05 465.776 665.857 465.776 666.81C465.776 667.8 465.428 668.643 464.731 669.34C464.071 670 463.246 670.33 462.256 670.33ZM484.216 670.88C481.686 670.88 479.395 670.238 477.341 668.955C475.325 667.672 473.73 665.912 472.556 663.675C471.383 661.402 470.796 658.835 470.796 655.975C470.796 653.152 471.383 650.603 472.556 648.33C473.73 646.057 475.325 644.278 477.341 642.995C479.395 641.712 481.686 641.07 484.216 641.07C486.343 641.07 488.25 641.565 489.936 642.555C491.623 643.508 492.906 644.7 493.786 646.13H494.006L493.786 642.225V630.62H498.461V670H494.006V665.875H493.786C492.906 667.268 491.623 668.46 489.936 669.45C488.25 670.403 486.343 670.88 484.216 670.88ZM484.711 666.645C486.361 666.645 487.883 666.205 489.276 665.325C490.706 664.445 491.843 663.198 492.686 661.585C493.566 659.972 494.006 658.102 494.006 655.975C494.006 653.848 493.566 651.978 492.686 650.365C491.843 648.752 490.706 647.505 489.276 646.625C487.883 645.745 486.361 645.305 484.711 645.305C483.098 645.305 481.576 645.745 480.146 646.625C478.716 647.505 477.561 648.77 476.681 650.42C475.838 652.033 475.416 653.885 475.416 655.975C475.416 658.065 475.838 659.935 476.681 661.585C477.561 663.198 478.716 664.445 480.146 665.325C481.576 666.205 483.098 666.645 484.711 666.645ZM517.584 670.88C514.907 670.88 512.505 670.238 510.379 668.955C508.252 667.672 506.584 665.912 505.374 663.675C504.2 661.402 503.614 658.853 503.614 656.03C503.614 653.353 504.164 650.878 505.264 648.605C506.4 646.295 507.995 644.462 510.049 643.105C512.139 641.748 514.522 641.07 517.199 641.07C519.949 641.07 522.332 641.693 524.349 642.94C526.365 644.15 527.905 645.837 528.969 648C530.069 650.163 530.619 652.638 530.619 655.425C530.619 655.865 530.582 656.342 530.509 656.855H508.289C508.399 658.982 508.912 660.778 509.829 662.245C510.745 663.712 511.9 664.812 513.294 665.545C514.724 666.278 516.209 666.645 517.749 666.645C521.415 666.645 524.184 664.958 526.054 661.585L530.014 663.51C528.84 665.747 527.209 667.543 525.119 668.9C523.029 670.22 520.517 670.88 517.584 670.88ZM525.669 653.005C525.595 651.832 525.265 650.658 524.679 649.485C524.092 648.312 523.175 647.322 521.929 646.515C520.682 645.708 519.105 645.305 517.199 645.305C514.999 645.305 513.129 646.02 511.589 647.45C510.049 648.843 509.04 650.695 508.564 653.005H525.669ZM532.473 641.95H537.478L546.168 664.5H546.278L555.078 641.95H559.973L548.533 670H543.803L532.473 641.95Z" fill="#FE2727"/>
<g clip-path="url(#clip0)">
<path fill-rule="evenodd" clip-rule="evenodd" d="M1202.33 642.571L1057.8 498.98L1137.68 417.701L1363 642.571H1202.33Z" fill="#02539A"/>
<path fill-rule="evenodd" clip-rule="evenodd" d="M1056.01 499.092L1199.27 355.836H1360.32L1137.46 578.697L1056.01 499.092Z" fill="#45D1FD" fill-opacity="0.85"/>
<path fill-rule="evenodd" clip-rule="evenodd" d="M932 374.133L1013.33 455.412L1360.32 108.429H1198.43L932 374.133Z" fill="#45D1FD"/>
</g>
<defs>
<clipPath id="clip0">
<rect width="430.996" height="535" fill="white" transform="translate(932 108)"/>
</clipPath>
</defs>
</svg>
